<svg width="69" height="69" viewBox="0 0 69 69" fill="none" xmlns="http://www.w3.org/2000/svg">
<path d="M34.5 69C53.5538 69 69 53.5538 69 34.5C69 15.4462 53.5538 0 34.5 0C15.4462 0 0 15.4462 0 34.5C0 53.5538 15.4462 69 34.5 69Z" fill="#EE5253"/>
<path d="M24.0289 25.5179L20.9542 27.7574C20.5305 28.0721 20.1189 28.3989 19.6711 28.6774C19.6165 28.7054 19.568 28.7441 19.5286 28.7911C19.4892 28.8382 19.4596 28.8926 19.4415 28.9513C19.4235 29.0099 19.4174 29.0716 19.4235 29.1327C19.4297 29.1937 19.448 29.253 19.4774 29.3068C20.0221 30.9168 20.5426 32.5389 21.0753 34.1489C21.0753 34.2337 21.0753 34.3305 21.1721 34.5242L19.8889 33.6042C18.8116 32.8295 17.7463 32.0547 16.6811 31.2679C16.6065 31.1954 16.5066 31.1549 16.4026 31.1549C16.2987 31.1549 16.1988 31.1954 16.1242 31.2679C14.7805 32.2605 13.4126 33.2411 12.0568 34.2216L11.6089 34.5363L12.0447 33.1563C12.4684 31.8611 12.88 30.5537 13.3279 29.2705C13.3545 29.2183 13.3702 29.1612 13.3742 29.1027C13.3782 29.0442 13.3704 28.9856 13.3511 28.9302C13.3319 28.8748 13.3017 28.8239 13.2624 28.7804C13.223 28.737 13.1753 28.7019 13.1221 28.6774L9.15158 25.7963L8.74 25.4816C8.88615 25.4382 9.04175 25.4382 9.1879 25.4816C10.8221 25.4816 12.4563 25.4816 14.0905 25.4816C14.1606 25.4936 14.2323 25.4915 14.3016 25.4754C14.3708 25.4593 14.4361 25.4295 14.4936 25.3878C14.5512 25.346 14.5998 25.2932 14.6366 25.2324C14.6734 25.1716 14.6976 25.104 14.7079 25.0337C15.2042 23.4358 15.7368 21.85 16.2453 20.2521C16.2453 20.1674 16.3179 20.0826 16.4026 19.8889C16.5842 20.4095 16.7295 20.8453 16.8747 21.2932C17.2863 22.5037 17.6979 23.8111 18.0853 25.07C18.0969 25.1345 18.1212 25.1961 18.1568 25.2512C18.1924 25.3062 18.2385 25.3537 18.2925 25.3909C18.3465 25.428 18.4074 25.4541 18.4716 25.4676C18.5357 25.4811 18.6019 25.4817 18.6663 25.4695C20.2521 25.4695 21.8258 25.4695 23.4116 25.4695H24.0047L24.0289 25.5179Z" fill="#FECA57"/>
<path d="M27.9995 37.1753C28.4232 37.3326 28.8589 37.4779 29.2826 37.6716C29.3441 37.7111 29.4133 37.737 29.4856 37.7474C29.5579 37.7577 29.6317 37.7524 29.7017 37.7317C29.7718 37.711 29.8366 37.6755 29.8917 37.6275C29.9468 37.5795 29.9909 37.5203 30.0211 37.4537C30.2632 37.0905 30.5658 36.7637 30.8926 36.3642C30.8926 36.9453 30.8926 37.4537 30.8926 37.9621C30.8926 38.1921 30.8926 38.3011 31.1589 38.3737C31.6553 38.5432 32.1395 38.7489 32.7084 38.9668C32.1274 39.1242 31.631 39.2816 31.1226 39.4026C31.0704 39.4085 31.0199 39.4249 30.9743 39.4509C30.9286 39.4769 30.8887 39.5119 30.857 39.5538C30.8253 39.5957 30.8025 39.6436 30.7898 39.6946C30.7772 39.7456 30.7751 39.7987 30.7837 39.8505C30.7837 40.3347 30.7837 40.819 30.7837 41.2911H30.6384C30.3721 40.8916 30.0816 40.4921 29.8395 40.0805C29.8185 40.0287 29.7871 39.9816 29.7473 39.9423C29.7075 39.9029 29.6601 39.8721 29.608 39.8517C29.5558 39.8313 29.5001 39.8218 29.4442 39.8236C29.3882 39.8255 29.3333 39.8388 29.2826 39.8626C28.8021 40.0217 28.3076 40.1352 27.8058 40.2016C28.1205 39.8021 28.4232 39.3905 28.75 38.9911C28.7867 38.9571 28.8159 38.9159 28.8359 38.87C28.8559 38.8242 28.8663 38.7747 28.8663 38.7247C28.8663 38.6747 28.8559 38.6253 28.8359 38.5794C28.8159 38.5336 28.7867 38.4924 28.75 38.4584C28.4595 38.0468 28.1932 37.6111 27.9147 37.1753H27.9995Z" fill="#FECA57"/>
<path d="M37.3084 23.4721C37.0784 23.9079 36.8484 24.3558 36.6063 24.7916C36.5758 24.8301 36.5534 24.8744 36.5405 24.9218C36.5276 24.9692 36.5244 25.0187 36.5312 25.0674C36.538 25.1161 36.5546 25.1628 36.58 25.2049C36.6054 25.247 36.639 25.2834 36.6789 25.3121C37.0663 25.6511 37.4295 26.0021 37.8168 26.3411L37.72 26.4742C37.2116 26.3895 36.7032 26.3411 36.2068 26.22C35.9284 26.1474 35.8195 26.22 35.7105 26.4742C35.4926 26.91 35.2505 27.3458 35.0205 27.7816H34.9237C34.851 27.3095 34.7784 26.8374 34.7179 26.3532C34.7212 26.2971 34.713 26.241 34.6938 26.1882C34.6746 26.1354 34.6448 26.0872 34.6062 26.0463C34.5677 26.0055 34.5212 25.973 34.4696 25.9508C34.418 25.9287 34.3625 25.9173 34.3063 25.9174C33.8145 25.8612 33.331 25.7474 32.8658 25.5784C33.3016 25.3605 33.7374 25.1305 34.1732 24.9247C34.225 24.9126 34.2738 24.8896 34.316 24.8572C34.3583 24.8248 34.3932 24.7837 34.4184 24.7367C34.4436 24.6898 34.4585 24.638 34.4622 24.5848C34.4658 24.5317 34.4581 24.4784 34.4395 24.4284C34.344 23.9217 34.2993 23.4067 34.3063 22.8911C34.6453 23.2421 34.9963 23.5811 35.3232 23.9442C35.3559 23.9945 35.3986 24.0374 35.4486 24.0704C35.4987 24.1034 35.555 24.1258 35.6141 24.136C35.6732 24.1462 35.7338 24.1441 35.792 24.1299C35.8503 24.1156 35.9049 24.0895 35.9526 24.0532C36.3763 23.8232 36.8121 23.6295 37.2479 23.4116L37.3084 23.4721Z" fill="#FECA57"/>
<path d="M28.06 18.061C28.5079 18.2426 28.9558 18.4242 29.3916 18.63C29.4398 18.665 29.4949 18.6895 29.5532 18.7018C29.6115 18.7142 29.6718 18.714 29.73 18.7015C29.7883 18.6889 29.8433 18.6642 29.8913 18.6289C29.9394 18.5936 29.9795 18.5486 30.0089 18.4968C30.2995 18.1337 30.6142 17.7826 30.9774 17.371C31.0206 17.8478 31.0003 18.3281 30.9168 18.7995C30.8949 18.8662 30.8875 18.9369 30.8949 19.0067C30.9024 19.0766 30.9245 19.1441 30.96 19.2048C30.9955 19.2654 31.0434 19.3178 31.1007 19.3586C31.1579 19.3993 31.2232 19.4274 31.2921 19.441C31.7279 19.5863 32.1516 19.8042 32.6842 20.0342C32.0789 20.1795 31.5826 20.3005 31.0863 20.4095C30.8442 20.4095 30.7716 20.5668 30.7353 20.8089C30.7192 21.321 30.6625 21.8311 30.5658 22.3342C30.3176 22.0089 30.095 21.6649 29.9 21.3053C29.5005 20.7 29.7305 20.7363 28.9195 20.9058L27.6363 21.2084C28.0116 20.7726 28.3021 20.3974 28.6411 20.0705C28.6992 20.0273 28.7473 19.9721 28.7824 19.9087C28.8174 19.8453 28.8385 19.7751 28.8443 19.7029C28.85 19.6307 28.8402 19.5581 28.8156 19.49C28.791 19.4219 28.7521 19.3598 28.7016 19.3079C28.4474 18.9326 28.2295 18.5332 27.9874 18.0974L28.06 18.061Z" fill="#FECA57"/>
<path d="M32.9626 32.6842C33.4347 32.6842 33.9068 32.6237 34.3789 32.6842C34.4416 32.6946 34.5057 32.6915 34.567 32.6752C34.6283 32.6589 34.6855 32.6297 34.7347 32.5897C34.7839 32.5496 34.8241 32.4996 34.8525 32.4428C34.8809 32.3861 34.8969 32.3239 34.8995 32.2605C35.0084 31.7884 35.1537 31.3284 35.3232 30.7595C35.5289 31.3163 35.6984 31.7521 35.8437 32.2C35.8523 32.2664 35.8745 32.3302 35.909 32.3875C35.9434 32.4449 35.9894 32.4944 36.044 32.5331C36.0986 32.5718 36.1606 32.5987 36.2262 32.6122C36.2917 32.6257 36.3593 32.6255 36.4247 32.6116C36.8847 32.6116 37.3568 32.6116 37.9379 32.6116C37.4658 32.9868 37.0784 33.2895 36.7274 33.58C36.641 33.6284 36.5772 33.709 36.55 33.8043C36.5228 33.8995 36.5343 34.0017 36.5821 34.0884C36.7971 34.571 36.9633 35.0739 37.0784 35.5895C36.5821 35.2626 36.1705 34.9963 35.7711 34.7058C35.7381 34.6694 35.698 34.6404 35.6532 34.6205C35.6083 34.6006 35.5598 34.5903 35.5108 34.5903C35.4617 34.5903 35.4133 34.6006 35.3684 34.6205C35.3236 34.6404 35.2834 34.6694 35.2505 34.7058C34.8632 35.0326 34.4516 35.3353 33.9553 35.7226C34.1126 35.1537 34.2216 34.6937 34.3789 34.2579C34.4133 34.1977 34.4343 34.1308 34.4406 34.0617C34.4468 33.9927 34.4382 33.9231 34.4152 33.8577C34.3923 33.7923 34.3556 33.7325 34.3075 33.6825C34.2595 33.6326 34.2013 33.5935 34.1368 33.5679C33.7374 33.3379 33.3742 33.0595 32.9989 32.8053L32.9626 32.6842Z" fill="#FECA57"/>
</svg>
