<svg width="69" height="69" viewBox="0 0 69 69" fill="none" xmlns="http://www.w3.org/2000/svg">
<path d="M33.0064 68.5723H32.6881C28.4989 68.5739 24.3504 67.7516 20.4797 66.1524C16.6089 64.5532 13.0917 62.2085 10.1289 59.2521C7.16613 56.2957 4.81587 52.7856 3.21236 48.9223C1.60886 45.059 0.783535 40.9182 0.783535 36.7365V36.4187C0.801725 36.4015 0.825821 36.3919 0.85087 36.3919C0.875918 36.3919 0.900015 36.4015 0.918205 36.4187C1.01297 36.8767 1.04998 37.3447 1.02839 37.8119C1.25419 40.3916 1.77167 42.9376 2.57097 45.4012C2.75461 46 2.80358 46.0244 3.42796 46.0244H65.6088C66.2331 46.0244 66.2821 46.0245 66.4658 45.4012C67.2673 42.9382 67.7848 40.392 68.0083 37.8119C68.002 37.3554 68.0513 36.8999 68.1553 36.4554C68.1734 36.4382 68.1975 36.4286 68.2226 36.4286C68.2476 36.4286 68.2717 36.4382 68.2899 36.4554V36.7731C68.2802 45.2123 64.9141 53.3023 58.9316 59.2651C52.949 65.2279 44.8395 68.5755 36.3854 68.5723H36.0671C36.0589 68.5643 36.0525 68.5548 36.048 68.5443C36.0436 68.5338 36.0413 68.5226 36.0413 68.5112C36.0413 68.4998 36.0436 68.4885 36.048 68.478C36.0525 68.4675 36.0589 68.458 36.0671 68.4501C36.4959 68.3482 36.9364 68.303 37.377 68.3156C44.7724 67.7027 51.7518 64.6449 57.2103 59.6265C57.9168 59.0051 58.5833 58.3397 59.2058 57.6344C59.2381 57.6098 59.2647 57.5785 59.2837 57.5426C59.3027 57.5068 59.3138 57.4672 59.316 57.4267H10.3451C10.2814 57.4236 10.2183 57.4396 10.1638 57.4728C10.1094 57.5059 10.0662 57.5546 10.0398 57.6126C10.0134 57.6705 10.0051 57.735 10.0158 57.7978C10.0266 57.8605 10.056 57.9186 10.1002 57.9644L10.2961 58.1844C13.0431 61.006 16.257 63.3336 19.7965 65.0648C22.9646 66.6059 26.3569 67.637 29.8478 68.1201C30.7415 68.2423 31.6352 68.3279 32.5289 68.3767C32.6756 68.3651 32.823 68.3903 32.9574 68.4501C32.9694 68.4539 32.9804 68.4604 32.9896 68.469C32.9988 68.4775 33.006 68.488 33.0106 68.4997C33.0153 68.5114 33.0174 68.5239 33.0166 68.5365C33.0159 68.549 33.0124 68.5612 33.0064 68.5723Z" fill="white"/>
<path d="M0.783534 32.5446V32.2269C0.781925 28.0451 1.60566 23.904 3.20768 20.0401C4.80969 16.1762 7.15861 12.6652 10.1202 9.70767C13.0819 6.75014 16.5982 4.40404 20.4683 2.80338C24.3385 1.20271 28.4866 0.37885 32.6758 0.37885H32.9941C33.0023 0.386815 33.0088 0.396322 33.0132 0.406815C33.0176 0.417307 33.0199 0.428574 33.0199 0.439955C33.0199 0.451337 33.0176 0.462603 33.0132 0.473096C33.0088 0.483588 33.0023 0.493095 32.9941 0.50106C32.5494 0.607307 32.0922 0.652534 31.6352 0.635492C24.2398 1.24847 17.2605 4.3062 11.802 9.32465C11.109 9.93516 10.4547 10.5882 9.84315 11.28C9.84315 11.28 9.72072 11.3778 9.72072 11.5122H58.6916C58.7553 11.5153 58.8185 11.4993 58.8729 11.4661C58.9273 11.433 58.9705 11.3843 58.9969 11.3263C59.0233 11.2684 59.0317 11.2039 59.0209 11.1411C59.0101 11.0784 58.9807 11.0204 58.9365 10.9745C58.5505 10.5456 58.1418 10.1377 57.7122 9.75239C55.9152 8.05717 53.9456 6.55397 51.8357 5.26727C47.9544 2.95175 43.6444 1.44282 39.1645 0.831028C38.283 0.708818 37.4015 0.635492 36.5201 0.586608C36.3733 0.598791 36.2259 0.57356 36.0916 0.513282C36.0834 0.505316 36.0769 0.495809 36.0725 0.485317C36.0681 0.474824 36.0658 0.463557 36.0658 0.452176C36.0658 0.440795 36.0681 0.429529 36.0725 0.419036C36.0769 0.408544 36.0834 0.399036 36.0916 0.391071V0.391071C44.6291 0.400785 52.8138 3.79228 58.8485 9.82084C64.8831 15.8494 68.2744 24.0222 68.2777 32.5446V32.5446C68.2595 32.5618 68.2354 32.5714 68.2103 32.5714C68.1853 32.5714 68.1612 32.5618 68.143 32.5446C68.0386 32.1002 67.9892 31.6446 67.9961 31.1881C67.7722 28.6081 67.2546 26.0619 66.4535 23.5988C66.2699 23 66.2209 22.9756 65.5965 22.9756H3.47693C2.85255 22.9756 2.80358 22.9756 2.61994 23.5988C1.80651 26.0486 1.27261 28.5822 1.02839 31.1514C1.03441 31.6079 0.985082 32.0634 0.881475 32.508C0.87029 32.5227 0.855153 32.534 0.837818 32.5405C0.820483 32.5469 0.801661 32.5484 0.783534 32.5446V32.5446Z" fill="#FCFCFC"/>
<path d="M36.1038 0C36.0943 0.0235165 36.0943 0.0498098 36.1038 0.0733263C36.0446 0.130792 35.973 0.173904 35.8944 0.199333C35.8159 0.224761 35.7325 0.231825 35.6508 0.219979H33.4104C33.3287 0.231825 33.2453 0.224761 33.1668 0.199333C33.0882 0.173904 33.0166 0.130792 32.9574 0.0733263C32.9669 0.0498098 32.9669 0.0235165 32.9574 0H36.1038Z" fill="#F26167"/>
<path d="M0 32.9113H0.0734562C0.131024 32.9704 0.174213 33.0419 0.199686 33.1203C0.22516 33.1987 0.232236 33.2819 0.220369 33.3634C0.220369 34.113 0.220369 34.8626 0.220369 35.6121C0.232236 35.6937 0.22516 35.7769 0.199686 35.8553C0.174213 35.9337 0.131024 36.0052 0.0734562 36.0643H0V32.9113Z" fill="#706788"/>
<path d="M36.116 68.8778C36.1076 68.9015 36.1076 68.9274 36.116 68.9511H32.9697C32.9792 68.9276 32.9792 68.9013 32.9697 68.8778C33.0289 68.8203 33.1005 68.7772 33.179 68.7518C33.2576 68.7264 33.3409 68.7193 33.4226 68.7311H35.6753C35.7551 68.7212 35.8361 68.7292 35.9123 68.7546C35.9886 68.78 36.0582 68.8221 36.116 68.8778V68.8778Z" fill="#F26167"/>
<path d="M69 32.899V36.0521C68.8593 39.3442 68.2322 42.5975 67.1391 45.7067C67.0412 46 66.8575 45.9756 66.6372 45.9756H2.42406C2.10575 45.9756 1.9466 45.9022 1.83641 45.5845C0.791221 42.5085 0.197417 39.2978 0.0734596 36.0521V32.899C0.193456 29.6019 0.799873 26.3405 1.87314 23.22C1.97108 22.9267 2.15472 22.9511 2.37509 22.9511H66.6494C66.7874 22.9301 66.9281 22.9646 67.0406 23.0471C67.1531 23.1296 67.2282 23.2533 67.2493 23.3911C68.29 26.4593 68.8797 29.6619 69 32.899Z" fill="#1E436D"/>
<path d="M36.1405 69H32.9207C29.8921 68.9066 26.8918 68.3882 24.008 67.4602C18.0361 65.6058 12.6713 62.1875 8.47197 57.5611C8.47197 57.5611 8.37402 57.4389 8.37402 57.3411H60.7239C60.6085 57.572 60.4408 57.7728 60.2342 57.9277C55.4238 63.0758 49.1681 66.6539 42.2864 68.1934C40.2718 68.677 38.2118 68.9474 36.1405 69V69Z" fill="#EE5253"/>
<path d="M32.9329 0H36.1283C39.6112 0.116747 43.0535 0.785009 46.3265 1.97981C51.6968 3.88968 56.5148 7.08758 60.3566 11.2922C60.4301 11.3656 60.528 11.4267 60.5525 11.5733H8.52094C8.65705 11.3248 8.83996 11.1049 9.05962 10.9256C13.8073 5.86516 19.9648 2.34063 26.7381 0.806589C28.7691 0.321887 30.8454 0.0515404 32.9329 0V0Z" fill="#EE5253"/>
</svg>
