<svg width="70" height="70" viewBox="0 0 70 70" fill="none" xmlns="http://www.w3.org/2000/svg">
<mask id="mask0" mask-type="alpha" maskUnits="userSpaceOnUse" x="0" y="0" width="70" height="70">
<circle cx="35" cy="35" r="35" fill="#C4C4C4"/>
</mask>
<g mask="url(#mask0)">
<path d="M-16.5308 41.6769V36.2923L-16.4123 36.2169C-16.2232 36.1871 -16.0306 36.1871 -15.8415 36.2169H36.4C36.6046 36.2169 36.8092 36.2169 37.0138 36.2169H114.897C115.705 36.2169 115.651 36.2169 115.651 35.4738C115.651 34.1887 115.651 32.9 115.651 31.6077C115.651 31.1446 115.651 31.1123 115.166 31.1015H37.2077C36.9312 31.147 36.6474 31.1134 36.3892 31.0046C36.2962 30.8613 36.258 30.6892 36.2815 30.52C36.2815 29.0482 36.2815 27.5764 36.2815 26.1046C36.2601 25.9368 36.2941 25.7666 36.3784 25.62C36.4999 25.5422 36.6442 25.508 36.7877 25.5231H114.822C115.726 25.5231 115.64 25.5769 115.651 24.7046C115.651 23.441 115.651 22.1774 115.651 20.9138C115.651 20.4508 115.651 20.4185 115.166 20.4077H37.2077C36.9347 20.4506 36.6551 20.417 36.4 20.3108C36.3149 20.1923 36.2766 20.0466 36.2923 19.9015C36.2923 18.3795 36.2923 16.8574 36.2923 15.3354C36.2789 15.192 36.3129 15.0483 36.3892 14.9262C36.5107 14.8483 36.655 14.8141 36.7984 14.8292H114.832C115.737 14.8292 115.651 14.8831 115.662 14.0108C115.662 12.7472 115.662 11.4836 115.662 10.22C115.662 9.75692 115.662 9.72461 115.177 9.71384H37.2077C36.9347 9.75671 36.6551 9.72317 36.4 9.61692C36.3149 9.49843 36.2766 9.35271 36.2923 9.20769C36.2923 7.6641 36.2923 6.12051 36.2923 4.57692C36.2789 4.43358 36.3129 4.28979 36.3892 4.16769C36.5107 4.08987 36.655 4.05569 36.7984 4.07077H114.822C115.726 4.07077 115.651 4.12461 115.651 3.26308C115.651 1.97077 115.651 0.689229 115.651 -0.603079C115.619 -0.794555 115.661 -0.990901 115.769 -1.15231C115.769 -1.15231 115.92 -1.22769 115.909 -1.07693C115.898 -0.926156 115.909 -0.904617 115.909 -0.829233C115.909 22.2026 115.909 45.2344 115.909 68.2662C115.909 68.5677 115.834 68.6108 115.554 68.6108H-16.2077C-16.3154 68.6108 -16.4554 68.6969 -16.5308 68.5462C-16.4143 68.4563 -16.268 68.414 -16.1215 68.4277H114.768C115.737 68.4277 115.651 68.5031 115.651 67.5662C115.651 66.2882 115.651 65.0138 115.651 63.7431C115.651 63.3015 115.651 63.2692 115.188 63.2585H-15.6046C-15.9113 63.3091 -16.2241 63.3091 -16.5308 63.2585V57.8739C-16.4143 57.784 -16.268 57.7417 -16.1215 57.7554H114.768C115.737 57.7554 115.651 57.8308 115.651 56.8939C115.651 55.6446 115.651 54.3918 115.651 53.1354C115.651 52.6938 115.651 52.6615 115.188 52.6508H-15.6046C-15.9113 52.7014 -16.2241 52.7014 -16.5308 52.6508V46.9538C-16.4142 46.9238 -16.2919 46.9238 -16.1754 46.9538H115.285C115.554 46.9538 115.651 46.8354 115.64 46.5769C115.64 45.9523 115.64 45.3277 115.64 44.7031C115.64 44.0785 115.64 43.1631 115.64 42.3877C115.64 41.8708 115.64 41.8492 115.08 41.8492H-15.6908C-15.9822 41.8882 -16.2782 41.8275 -16.5308 41.6769V41.6769Z" fill="#FEFEFE"/>
<path d="M36.4 36.2708H36.0015H-16.0677H-16.4662C-16.4945 36.1431 -16.4945 36.0108 -16.4662 35.8831C-16.4662 23.678 -16.4662 11.4405 -16.4662 -0.829231C-16.499 -0.956377 -16.499 -1.08978 -16.4662 -1.21692H36.4C36.4989 -1.08007 36.5413 -0.910381 36.5185 -0.743078C36.5185 0.69282 36.5185 2.16103 36.5185 3.66154C36.5343 3.83038 36.4966 3.99993 36.4108 4.14615V9.53077C36.4844 9.65433 36.5218 9.79617 36.5185 9.94C36.5185 11.4549 36.5185 12.9662 36.5185 14.4738C36.5291 14.5458 36.525 14.6192 36.5065 14.6895C36.488 14.7598 36.4554 14.8257 36.4108 14.8831V20.2677C36.4992 20.4247 36.5368 20.6053 36.5185 20.7846C36.5185 22.2205 36.5185 23.6564 36.5185 25.0923C36.5441 25.2719 36.506 25.4548 36.4108 25.6092V30.9938C36.5029 31.1214 36.5415 31.2798 36.5185 31.4354C36.5185 32.9072 36.5185 34.3826 36.5185 35.8615C36.5232 36.007 36.4817 36.1503 36.4 36.2708V36.2708Z" fill="#1E436D"/>
<path d="M-16.5308 63.1292C-16.4048 63.0881 -16.269 63.0881 -16.1431 63.1292H115.382C115.683 63.1292 115.791 63.1292 115.791 63.5169C115.791 65.0677 115.791 66.6185 115.791 68.1692C115.791 68.46 115.705 68.5677 115.425 68.5138H-16.5308V63.1292Z" fill="#EE5253"/>
<path d="M-16.5308 52.4354C-16.38 52.3277 -16.2077 52.3708 -16.0354 52.3708H115.177C115.274 52.3773 115.371 52.3773 115.468 52.3708C115.726 52.3708 115.791 52.4462 115.791 52.6938C115.791 54.0938 115.791 55.4831 115.791 56.8831C115.791 57.7231 115.791 57.7231 114.951 57.7231H-16.5308V52.4354Z" fill="#EE5253"/>
<path d="M-16.5308 41.6769H115.317C115.683 41.6769 115.791 41.7523 115.791 42.14C115.791 43.6585 115.791 45.1769 115.791 46.6846C115.791 46.9431 115.737 47.0723 115.457 47.0292H-16.0031C-16.1814 47.0631 -16.3659 47.0405 -16.5308 46.9646V41.6769Z" fill="#EE5253"/>
<path d="M36.4108 4.14615V-1.23846H115.78C115.78 0.463076 115.78 2.15385 115.78 3.85538C115.78 4.08154 115.694 4.15692 115.489 4.13538H36.4108V4.14615Z" fill="#EE5253"/>
<path d="M36.4108 14.8615V9.47692H115.511C115.705 9.47692 115.78 9.47692 115.78 9.73538C115.78 11.3508 115.78 12.9626 115.78 14.5708C115.78 14.7862 115.705 14.8508 115.5 14.8292H36.4108V14.8615Z" fill="#EE5253"/>
<path d="M36.4108 25.5769C36.4108 23.7892 36.4108 21.9944 36.4108 20.1923H115.554C115.726 20.1923 115.791 20.2569 115.791 20.4292C115.791 22.0662 115.791 23.7031 115.791 25.34C115.791 25.5123 115.726 25.5769 115.554 25.5662H36.4108V25.5769Z" fill="#EE5253"/>
<path d="M36.4 36.2708C36.4 34.4903 36.4 32.6954 36.4 30.8862H115.295C115.834 30.8862 115.769 30.8 115.769 31.3708C115.769 32.8462 115.769 34.3323 115.769 35.8077C115.769 36.1954 115.651 36.2492 115.306 36.2492H36.8631L36.4 36.2708Z" fill="#EE5253"/>
<path d="M8.05538 28.1292H9.1323C9.34768 28.1292 9.48768 28.1292 9.53076 27.8385C9.60238 27.5494 9.6923 27.2653 9.79999 26.9877C9.79999 26.9231 9.79999 26.8262 9.90768 26.8262C10.0154 26.8262 9.98307 26.9231 10.0046 26.9877C10.1015 27.2785 10.22 27.5692 10.3061 27.8708C10.3923 28.1723 10.4892 28.1508 10.6938 28.14C11.0708 28.14 11.4585 28.14 11.9431 28.14C11.5446 28.4308 11.2538 28.6785 10.9308 28.8723C10.6077 29.0662 10.7046 29.1846 10.7908 29.4108C10.8769 29.6369 11.0169 30.0569 11.1246 30.3692H11.0492C10.7585 30.1646 10.4569 29.96 10.1661 29.7338C10.1339 29.6989 10.0947 29.6711 10.0512 29.652C10.0076 29.633 9.96061 29.6231 9.91307 29.6231C9.86553 29.6231 9.81851 29.633 9.77495 29.652C9.7314 29.6711 9.69226 29.6989 9.65999 29.7338C9.37999 29.9708 9.06768 30.1646 8.73384 30.4015C8.79198 30.0308 8.89692 29.6689 9.04614 29.3246C9.11076 29.12 9.12153 28.98 8.90615 28.84C8.69076 28.7 8.31384 28.4092 8.0123 28.1831L8.05538 28.1292Z" fill="#FDFDFD"/>
<path d="M17.5431 22.9062C17.64 22.6046 17.7369 22.3031 17.8446 22.0015C17.9523 21.7 17.9738 21.4738 17.64 21.2908C17.3394 21.1136 17.0731 20.8838 16.8538 20.6123C17.22 20.6123 17.5861 20.6123 17.9308 20.6123C18.2754 20.6123 18.3077 20.4938 18.3723 20.2677C18.4369 20.0415 18.5769 19.6215 18.7169 19.1908C18.8764 19.537 19.0026 19.8976 19.0938 20.2677C19.0947 20.3127 19.1053 20.3571 19.125 20.3976C19.1446 20.4382 19.1728 20.474 19.2075 20.5027C19.2423 20.5313 19.2829 20.5521 19.3265 20.5636C19.3701 20.5751 19.4156 20.577 19.46 20.5692C19.8477 20.5692 20.2246 20.5692 20.6554 20.5692C20.4638 20.8211 20.2217 21.0302 19.9446 21.1831C19.3846 21.6138 19.5031 21.4631 19.6861 22.0446C19.7723 22.3246 19.8477 22.6046 19.9446 22.9708L19.0615 22.3031C19.0185 22.2598 18.9673 22.2254 18.9109 22.2019C18.8546 22.1785 18.7941 22.1664 18.7331 22.1664C18.672 22.1664 18.6116 22.1785 18.5552 22.2019C18.4988 22.2254 18.4476 22.2598 18.4046 22.3031C18.1354 22.5185 17.8554 22.7231 17.5861 22.9277L17.5431 22.9062Z" fill="#FDFDFD"/>
<path d="M1.07691 26.74C1.24254 27.0351 1.35894 27.3552 1.42153 27.6877C1.50768 28.0108 1.64768 28.1831 2.01384 28.14C2.37259 28.1222 2.732 28.1222 3.09076 28.14C2.6923 28.4523 2.36922 28.7215 2.01384 28.9477C1.98372 28.9597 1.95671 28.9784 1.93481 29.0023C1.91292 29.0262 1.89671 29.0548 1.88739 29.0858C1.87807 29.1169 1.87589 29.1497 1.881 29.1817C1.88611 29.2137 1.89839 29.2442 1.91691 29.2708C2.04614 29.5615 2.05691 29.9062 2.21845 30.1862C2.21845 30.2508 2.28307 30.3369 2.21845 30.3908C2.15384 30.4446 2.15384 30.3692 2.15384 30.3154L2.07845 30.24C1.13076 29.5615 1.13076 29.5615 0.215374 30.3046C0.150759 30.3046 0.0969124 30.4231 -0.0323184 30.38C0.0753739 30.0031 0.161528 29.6262 0.301528 29.3031C0.319765 29.2694 0.330896 29.2323 0.334234 29.1942C0.337571 29.156 0.333043 29.1176 0.32093 29.0812C0.308816 29.0449 0.289376 29.0114 0.26381 28.9829C0.238245 28.9544 0.207098 28.9314 0.172297 28.9154C-0.154182 28.6912 -0.460473 28.439 -0.743088 28.1615C-0.387703 28.1615 -0.0215493 28.1615 0.333835 28.1615C0.68922 28.1615 0.721528 28.1077 0.786143 27.8385C0.850759 27.5692 0.96922 27.1277 1.07691 26.74Z" fill="#FDFDFD"/>
<path d="M15.4969 34.1815C15.1631 33.9446 14.8508 33.7292 14.5492 33.4923C14.5251 33.4665 14.4959 33.446 14.4634 33.432C14.431 33.418 14.3961 33.4107 14.3608 33.4107C14.3254 33.4107 14.2905 33.418 14.2581 33.432C14.2257 33.446 14.1965 33.4665 14.1723 33.4923C13.8492 33.74 13.5154 33.9662 13.0954 34.2462C13.1836 33.8463 13.3024 33.4539 13.4508 33.0723C13.58 32.8031 13.4508 32.6954 13.2785 32.5769C13.1062 32.4585 12.6862 32.1569 12.3846 31.9415V31.8554C12.7254 31.8376 13.0669 31.8376 13.4077 31.8554C13.7415 31.8554 13.8708 31.7477 13.9569 31.4569C14.0318 31.1259 14.1438 30.8044 14.2908 30.4985C14.5492 30.8323 14.5385 31.2738 14.7108 31.64C14.7862 31.8015 14.84 31.8554 15.0015 31.8554H16.2185C16.1431 32.1138 15.9062 32.1785 15.7338 32.2969C15.0338 32.8138 15.0231 32.8031 15.3462 33.6323C15.4072 33.7088 15.4521 33.797 15.478 33.8914C15.5039 33.9858 15.5104 34.0846 15.4969 34.1815V34.1815Z" fill="#FDFDFD"/>
<path d="M27.6231 26.7723C27.7415 27.1277 27.8708 27.4831 27.9785 27.8492C27.9837 27.8929 27.9977 27.935 28.0197 27.973C28.0418 28.0111 28.0713 28.0442 28.1066 28.0704C28.1419 28.0966 28.1822 28.1154 28.2249 28.1255C28.2677 28.1356 28.3121 28.1369 28.3554 28.1292C28.7443 28.1062 29.1345 28.1279 29.5185 28.1938C29.26 28.3877 29.0015 28.5923 28.7323 28.7538C28.6098 28.8141 28.5161 28.9205 28.4717 29.0496C28.4273 29.1787 28.4358 29.3202 28.4954 29.4431C28.634 29.7588 28.7282 30.0923 28.7754 30.4338C28.42 30.1862 28.1077 29.9923 27.8169 29.7662C27.7867 29.7335 27.75 29.7075 27.7093 29.6897C27.6685 29.6719 27.6245 29.6627 27.58 29.6627C27.5355 29.6627 27.4915 29.6719 27.4507 29.6897C27.41 29.7075 27.3733 29.7335 27.3431 29.7662C27.0523 29.9923 26.7292 30.1969 26.3308 30.4769C26.4815 30.0138 26.5892 29.6477 26.7077 29.3031C26.7723 29.1308 26.8154 29.0231 26.6108 28.8938C26.4062 28.7646 25.9646 28.4092 25.5338 28.1077C25.9862 28.1077 26.3523 28.1077 26.7292 28.1077C26.781 28.1169 26.8341 28.1154 26.8853 28.1034C26.9365 28.0914 26.9847 28.0691 27.027 28.0379C27.0694 28.0066 27.1049 27.9671 27.1314 27.9217C27.158 27.8763 27.175 27.826 27.1815 27.7738C27.2677 27.4292 27.3969 27.0954 27.5046 26.6969L27.6231 26.7723Z" fill="#FDFDFD"/>
<path d="M8.79845 22.7446C8.8625 22.4265 8.95996 22.1161 9.08921 21.8185C9.12723 21.7382 9.13276 21.6463 9.10467 21.562C9.07658 21.4777 9.01703 21.4076 8.93845 21.3662C8.5925 21.151 8.27423 20.8942 7.99075 20.6015H9.22921C9.40152 20.6015 9.50921 20.6015 9.55229 20.3646C9.63356 20.0512 9.73061 19.7421 9.84306 19.4385C9.84306 19.3738 9.84306 19.32 9.95075 19.32C10.0584 19.32 10.0261 19.3954 10.0369 19.4492L10.2092 19.9231C10.4677 20.6123 10.4677 20.6123 11.2108 20.6123H11.9215C11.6482 20.8907 11.3406 21.1331 11.0061 21.3338C10.9515 21.3582 10.9029 21.3942 10.8637 21.4394C10.8245 21.4845 10.7957 21.5377 10.7793 21.5952C10.7629 21.6527 10.7592 21.7131 10.7687 21.7721C10.7781 21.8311 10.8003 21.8874 10.8338 21.9369C10.9774 22.2894 11.1032 22.6488 11.2108 23.0138C10.8554 22.7446 10.5861 22.5615 10.3277 22.3462C10.2795 22.2963 10.2217 22.2567 10.1579 22.2296C10.0941 22.2026 10.0255 22.1886 9.95614 22.1886C9.88681 22.1886 9.81819 22.2026 9.75436 22.2296C9.69053 22.2567 9.6328 22.2963 9.5846 22.3462C9.41229 22.4969 9.21845 22.6154 9.04614 22.7554C8.87383 22.8954 8.86306 22.9385 8.79845 22.7446Z" fill="#FDFDFD"/>
<path d="M17.5538 30.38C17.6331 30.0871 17.7302 29.7994 17.8446 29.5185C17.8859 29.457 17.9135 29.3873 17.9255 29.3142C17.9376 29.2411 17.9338 29.1663 17.9144 29.0948C17.895 29.0233 17.8604 28.9569 17.8131 28.8999C17.7657 28.8429 17.7067 28.7968 17.64 28.7646C17.3524 28.5865 17.0883 28.373 16.8538 28.1292C17.2092 28.1292 17.5754 28.1292 17.9308 28.1292C17.9857 28.1419 18.0428 28.1423 18.0979 28.1306C18.1531 28.119 18.2051 28.0954 18.2502 28.0615C18.2953 28.0277 18.3325 27.9844 18.3592 27.9347C18.3858 27.885 18.4013 27.8301 18.4046 27.7738C18.4046 27.4615 18.6738 27.2031 18.6415 26.8046C18.8783 27.0097 19.0347 27.292 19.0831 27.6015C19.2446 28.1185 19.2338 28.1292 19.7831 28.1292H20.7846C20.3861 28.4308 20.0846 28.7 19.7077 28.9046C19.3308 29.1092 19.5246 29.1415 19.5892 29.3138C19.7376 29.6808 19.8424 30.064 19.9015 30.4554C19.5677 30.2077 19.2769 30.0138 19.0077 29.7985C18.9734 29.7613 18.9318 29.7316 18.8854 29.7113C18.8391 29.6909 18.789 29.6805 18.7385 29.6805C18.6879 29.6805 18.6378 29.6909 18.5915 29.7113C18.5451 29.7316 18.5035 29.7613 18.4692 29.7985C18.1892 30.0246 17.8769 30.2292 17.5754 30.4338L17.5538 30.38Z" fill="#FDFDFD"/>
<path d="M21.9261 34.2677C22.0661 33.8046 22.1631 33.4277 22.3031 33.0831C22.3249 33.0416 22.338 32.9961 22.3417 32.9494C22.3453 32.9027 22.3394 32.8557 22.3243 32.8114C22.3092 32.767 22.2852 32.7262 22.2537 32.6915C22.2223 32.6567 22.1841 32.6287 22.1415 32.6092L21.3446 32.06C21.3446 32.06 21.28 31.9631 21.2154 31.8661H22.4323C22.4729 31.8756 22.515 31.8761 22.5559 31.8678C22.5967 31.8595 22.6353 31.8426 22.669 31.818C22.7027 31.7935 22.7307 31.7621 22.7512 31.7258C22.7717 31.6895 22.7841 31.6492 22.7877 31.6077C22.8745 31.2348 23.0046 30.8734 23.1754 30.5308C23.3436 30.8745 23.4736 31.2356 23.5631 31.6077C23.5683 31.6461 23.5812 31.683 23.6009 31.7163C23.6206 31.7496 23.6468 31.7787 23.6779 31.8018C23.709 31.8248 23.7444 31.8415 23.782 31.8507C23.8196 31.8599 23.8587 31.8615 23.8969 31.8554C24.2954 31.8554 24.6831 31.8554 25.1246 31.8554C24.9738 32.1354 24.7154 32.2215 24.5215 32.3615C23.9615 32.7708 23.9508 32.76 24.1554 33.4385L24.4246 34.2892C24.0692 34.0308 23.7677 33.8154 23.4877 33.5892C23.4485 33.5488 23.4017 33.5167 23.3499 33.4948C23.2981 33.4729 23.2424 33.4616 23.1861 33.4616C23.1299 33.4616 23.0742 33.4729 23.0224 33.4948C22.9706 33.5167 22.9238 33.5488 22.8846 33.5892C22.6154 33.7938 22.2923 33.9985 21.9261 34.2677Z" fill="#FDFDFD"/>
<path d="M30.8323 34.16C30.8758 33.8211 30.9702 33.4907 31.1123 33.18C31.1877 32.9 31.1877 32.6954 30.8754 32.5338C30.5754 32.3603 30.3091 32.1341 30.0892 31.8662C30.4338 31.8662 30.7892 31.8662 31.1662 31.8662C31.2253 31.8804 31.2869 31.8816 31.3465 31.8696C31.4062 31.8577 31.4625 31.833 31.5117 31.7971C31.5609 31.7613 31.6017 31.7152 31.6312 31.662C31.6608 31.6089 31.6785 31.5499 31.6831 31.4892C31.7665 31.1496 31.897 30.8234 32.0708 30.52C32.1785 30.8754 32.2969 31.2308 32.4046 31.5969C32.4111 31.641 32.4264 31.6834 32.4496 31.7214C32.4727 31.7595 32.5033 31.7926 32.5394 31.8187C32.5755 31.8448 32.6165 31.8634 32.66 31.8734C32.7034 31.8834 32.7484 31.8846 32.7923 31.8769C33.1692 31.8769 33.5569 31.8769 33.9985 31.8769C33.7431 32.1483 33.4492 32.3805 33.1262 32.5662C32.8785 32.7277 32.7923 32.8785 32.9215 33.1692C33.0602 33.5212 33.1789 33.8808 33.2769 34.2462C32.9323 33.9877 32.6523 33.8154 32.4046 33.6C32.3581 33.5436 32.2998 33.4982 32.2337 33.467C32.1676 33.4358 32.0954 33.4196 32.0223 33.4196C31.9492 33.4196 31.8771 33.4358 31.811 33.467C31.7449 33.4982 31.6865 33.5436 31.64 33.6C31.4025 33.8287 31.1298 34.0178 30.8323 34.16V34.16Z" fill="#FDFDFD"/>
<path d="M5.53537 30.4123C5.68614 30.8646 5.81537 31.2092 5.90153 31.5646C5.98768 31.92 6.0523 31.8877 6.28922 31.8662C6.52614 31.8446 7.05384 31.8662 7.49537 31.8662C7.24208 32.1397 6.9478 32.3722 6.62307 32.5554C6.39691 32.7169 6.29999 32.8569 6.40768 33.1369C6.55482 33.482 6.65969 33.8436 6.71999 34.2138C6.41845 33.9877 6.13845 33.8154 5.90153 33.6C5.85504 33.5473 5.79787 33.5051 5.73381 33.4761C5.66975 33.4472 5.60027 33.4323 5.52999 33.4323C5.45971 33.4323 5.39023 33.4472 5.32617 33.4761C5.26211 33.5051 5.20494 33.5473 5.15845 33.6C4.89999 33.8046 4.63076 33.9985 4.27537 34.2677C4.41537 33.8477 4.5123 33.5031 4.64153 33.1908C4.77076 32.8785 4.73845 32.7277 4.45845 32.5662C4.14365 32.3736 3.8573 32.138 3.60768 31.8662C4.00614 31.8662 4.41537 31.8662 4.81384 31.8662C4.85146 31.8722 4.88993 31.8705 4.92689 31.8612C4.96384 31.8519 4.99851 31.8351 5.02875 31.8119C5.059 31.7887 5.08419 31.7596 5.10279 31.7264C5.12139 31.6931 5.133 31.6564 5.13691 31.6185C5.25537 31.2308 5.3846 30.8862 5.53537 30.4123Z" fill="#FDFDFD"/>
<path d="M12.46 1.88461C12.8369 1.88461 13.2246 1.88461 13.6015 1.88461C13.6753 1.89478 13.7502 1.8773 13.8118 1.83555C13.8735 1.7938 13.9175 1.73072 13.9354 1.65846C14.0969 1.28154 14.14 0.872306 14.3338 0.495383C14.5212 0.872929 14.6657 1.27028 14.7646 1.68C14.7801 1.74569 14.8197 1.80318 14.8755 1.84107C14.9313 1.87897 14.9994 1.89451 15.0661 1.88461H16.3369C16.0369 2.13391 15.7241 2.36755 15.4 2.58461C15.1523 2.72461 15.1631 2.88615 15.2169 3.12308C15.3502 3.47205 15.4512 3.83254 15.5185 4.2C15.1738 3.95231 14.8615 3.74769 14.5815 3.52154C14.5512 3.48716 14.5139 3.45963 14.4722 3.44077C14.4304 3.42191 14.3851 3.41216 14.3392 3.41216C14.2934 3.41216 14.2481 3.42191 14.2063 3.44077C14.1645 3.45963 14.1272 3.48716 14.0969 3.52154C13.8062 3.76923 13.4831 3.97384 13.0954 4.25384C13.1992 3.84528 13.325 3.44264 13.4723 3.04769C13.4947 3.01302 13.5095 2.97397 13.5156 2.93315C13.5218 2.89233 13.5192 2.85066 13.5079 2.81093C13.4967 2.7712 13.4772 2.73431 13.4506 2.70271C13.4241 2.67112 13.3911 2.64554 13.3538 2.62769L12.4277 1.96L12.46 1.88461Z" fill="#FDFDFE"/>
<path d="M30.0677 1.88461H31.2308C31.2656 1.89072 31.3012 1.88962 31.3356 1.8814C31.3699 1.87318 31.4022 1.858 31.4305 1.83681C31.4587 1.81561 31.4824 1.78885 31.4999 1.75818C31.5174 1.72751 31.5284 1.69357 31.5323 1.65846C31.6508 1.26 31.7908 0.872307 31.9523 0.39846C32.0923 0.839999 32.2108 1.18461 32.3077 1.52923C32.4046 1.87385 32.4908 1.90615 32.7815 1.88461C33.0723 1.86308 33.4923 1.88461 33.8585 1.88461C33.5546 2.16427 33.2267 2.41653 32.8785 2.63846C32.8424 2.65755 32.8106 2.68375 32.785 2.71549C32.7593 2.74723 32.7404 2.78384 32.7293 2.8231C32.7182 2.86237 32.7153 2.90347 32.7205 2.94393C32.7258 2.98438 32.7392 3.02335 32.76 3.05846C32.9 3.40308 32.9969 3.78 33.1369 4.2C32.759 3.99715 32.3988 3.763 32.06 3.5C32.0348 3.47224 32.004 3.45005 31.9697 3.43487C31.9354 3.4197 31.8983 3.41185 31.8608 3.41185C31.8232 3.41185 31.7861 3.4197 31.7518 3.43487C31.7175 3.45005 31.6868 3.47224 31.6615 3.5C31.36 3.74769 31.0369 3.95231 30.6708 4.21077C30.7394 3.84245 30.844 3.48174 30.9831 3.13384C31.0283 3.03057 31.0323 2.91391 30.9942 2.80779C30.9562 2.70166 30.879 2.61411 30.7785 2.56308C30.5097 2.37285 30.2702 2.14427 30.0677 1.88461V1.88461Z" fill="#FEFEFE"/>
<path d="M23.1969 0.473845C23.3261 0.861537 23.4446 1.18461 23.5308 1.55077C23.6169 1.91692 23.7138 1.96 24.0261 1.92769C24.3385 1.89538 24.7261 1.92769 25.1031 1.92769C24.811 2.20119 24.4937 2.44638 24.1554 2.66C24.1146 2.68144 24.0786 2.71084 24.0493 2.74645C24.0201 2.78207 23.9984 2.82318 23.9853 2.86735C23.9723 2.91153 23.9682 2.95787 23.9734 3.00364C23.9785 3.04942 23.9928 3.09369 24.0154 3.13384C24.1554 3.46769 24.2523 3.83384 24.3815 4.21077C24.0838 4.07366 23.8108 3.88806 23.5738 3.66154C23.5234 3.59865 23.4595 3.54789 23.3868 3.51302C23.3141 3.47814 23.2345 3.46003 23.1538 3.46003C23.0732 3.46003 22.9936 3.47814 22.9209 3.51302C22.8482 3.54789 22.7843 3.59865 22.7338 3.66154C22.4685 3.88073 22.1917 4.08563 21.9046 4.27538C22.0554 3.81231 22.1523 3.43538 22.2923 3.06923C22.3309 2.99471 22.3391 2.90807 22.3149 2.82767C22.2908 2.74726 22.2364 2.6794 22.1631 2.63846C21.8391 2.41943 21.5362 2.17066 21.2585 1.89538C21.6461 1.89538 22.0338 1.89538 22.4215 1.89538C22.4592 1.90145 22.4976 1.89977 22.5346 1.89044C22.5715 1.88112 22.6062 1.86435 22.6364 1.84116C22.6667 1.81797 22.6919 1.78885 22.7105 1.75558C22.7291 1.72232 22.7407 1.6856 22.7446 1.64769C22.8505 1.24058 23.0023 0.846783 23.1969 0.473845V0.473845Z" fill="#FDFDFE"/>
<path d="M3.5323 1.88461C4.01692 1.88461 4.40461 1.88461 4.80307 1.88461C4.84068 1.89234 4.87947 1.89225 4.91704 1.88435C4.95462 1.87645 4.99016 1.8609 5.02147 1.83868C5.05278 1.81646 5.07918 1.78804 5.09905 1.75519C5.11891 1.72233 5.1318 1.68574 5.13692 1.64769C5.25538 1.26 5.38461 0.872306 5.53538 0.409229C5.67538 0.829229 5.81538 1.17384 5.90153 1.48615C5.98769 1.79846 6.09538 1.87384 6.39692 1.85231C6.69846 1.83077 7.06461 1.85231 7.47384 1.85231C7.2292 2.1336 6.93772 2.37043 6.6123 2.55231C6.41846 2.70308 6.34307 2.81077 6.43999 3.04769C6.53692 3.28461 6.65538 3.74769 6.79538 4.2L5.97692 3.66154C5.53538 3.32769 5.53538 3.32769 5.08307 3.66154C4.86769 3.82308 4.64153 3.97384 4.36153 4.16769C4.40679 3.84299 4.5012 3.52706 4.64153 3.23077C4.74923 2.97231 4.76 2.8 4.49076 2.63846C4.22153 2.47692 3.89846 2.15384 3.5323 1.88461Z" fill="#FEFEFE"/>
<path d="M13.8708 9.32615L14.3338 7.99077C14.6031 8.34615 14.5923 8.77692 14.7646 9.14307C14.84 9.30461 14.9046 9.35846 15.0661 9.35846H16.3046C16.0719 9.63332 15.7909 9.86326 15.4754 10.0369C15.3606 10.0908 15.2716 10.1875 15.2273 10.3063C15.183 10.425 15.187 10.5565 15.2385 10.6723C15.3976 11.0109 15.4925 11.376 15.5185 11.7492C15.2385 11.5446 14.98 11.3723 14.7538 11.1785C14.7053 11.1198 14.6445 11.0725 14.5756 11.0401C14.5067 11.0077 14.4315 10.9908 14.3554 10.9908C14.2792 10.9908 14.204 11.0077 14.1352 11.0401C14.0663 11.0725 14.0054 11.1198 13.9569 11.1785C13.6847 11.405 13.4007 11.6171 13.1061 11.8138C13.2134 11.398 13.3428 10.9882 13.4938 10.5862C13.5126 10.5546 13.5248 10.5195 13.5295 10.4831C13.5342 10.4467 13.5315 10.4097 13.5214 10.3744C13.5113 10.3391 13.4941 10.3063 13.4708 10.2779C13.4476 10.2494 13.4188 10.2261 13.3861 10.2092L12.6431 9.64923C12.5677 9.43384 12.74 9.45538 12.8585 9.44461H13.5261C13.5887 9.45053 13.6518 9.44302 13.7112 9.42259C13.7707 9.40216 13.8251 9.36928 13.8708 9.32615Z" fill="#FDFDFD"/>
<path d="M26.3738 7.88308C26.4923 7.51692 26.6108 7.14 26.74 6.80615C26.74 6.65538 26.8154 6.56923 26.6431 6.46154C26.4708 6.35384 25.9969 5.97692 25.5661 5.66461C26.04 5.66461 26.4169 5.66461 26.7831 5.66461C26.8292 5.67559 26.877 5.67695 26.9236 5.6686C26.9702 5.66025 27.0147 5.64239 27.0541 5.61611C27.0935 5.58984 27.1271 5.55572 27.1527 5.51589C27.1783 5.47606 27.1955 5.43137 27.2031 5.38461L27.5692 4.18923C27.72 4.62 27.8492 4.97538 27.9461 5.33077C28.0431 5.68615 28.1185 5.68615 28.3985 5.66461C28.6785 5.64308 29.1092 5.66461 29.5831 5.66461C29.2061 5.94461 28.9369 6.19231 28.6246 6.37538C28.5364 6.4215 28.4693 6.49978 28.4372 6.594C28.4052 6.68823 28.4106 6.79118 28.4523 6.88154C28.5966 7.2268 28.6978 7.58849 28.7538 7.95846C28.42 7.72154 28.1292 7.52769 27.86 7.30154C27.8247 7.26232 27.7815 7.23096 27.7332 7.2095C27.685 7.18804 27.6328 7.17695 27.58 7.17695C27.5272 7.17695 27.475 7.18804 27.4268 7.2095C27.3785 7.23096 27.3353 7.26232 27.3 7.30154C27.0308 7.52769 26.7292 7.72154 26.4385 7.92615L26.3738 7.88308Z" fill="#FDFDFD"/>
<path d="M-0.107691 15.4862C0.0323088 15.0123 0.129232 14.6354 0.258463 14.2692C0.276731 14.2333 0.287602 14.194 0.290432 14.1538C0.293263 14.1136 0.287996 14.0732 0.274942 14.035C0.261889 13.9969 0.241315 13.9617 0.214437 13.9317C0.187559 13.9016 0.154924 13.8772 0.118462 13.86C-0.197142 13.6512 -0.489566 13.4093 -0.753845 13.1385C-0.376922 13.1385 9.64678e-07 13.1385 0.323078 13.1385C0.363357 13.1516 0.405891 13.1564 0.448093 13.1526C0.490295 13.1488 0.531282 13.1365 0.568558 13.1163C0.605833 13.0962 0.638619 13.0687 0.664919 13.0354C0.691219 13.0022 0.710484 12.964 0.72154 12.9231C0.840001 12.5354 0.969232 12.1585 1.10923 11.7492C1.26392 12.0481 1.37628 12.3671 1.44308 12.6969C1.52923 13.0415 1.66923 13.2354 2.06769 13.1923C2.39766 13.1726 2.7285 13.1726 3.05846 13.1923C2.79966 13.4673 2.50218 13.7031 2.17539 13.8923C2.12635 13.9168 2.08306 13.9514 2.04837 13.9938C2.01368 14.0362 1.98837 14.0855 1.97413 14.1384C1.95988 14.1913 1.95702 14.2467 1.96572 14.3008C1.97442 14.3549 1.99449 14.4065 2.02462 14.4523C2.15385 14.7646 2.22923 15.0985 2.34769 15.5292C1.96877 15.3281 1.60839 15.0939 1.27077 14.8292C1.24756 14.8038 1.21929 14.7834 1.18776 14.7695C1.15624 14.7556 1.12216 14.7484 1.08769 14.7484C1.05323 14.7484 1.01915 14.7556 0.987625 14.7695C0.956101 14.7834 0.927829 14.8038 0.904616 14.8292C0.635386 14.9908 0.29077 15.2062 -0.107691 15.4862Z" fill="#FDFDFE"/>
<path d="M12.46 16.8754C12.8046 16.8754 13.16 16.8754 13.5369 16.8754C13.5915 16.8862 13.6478 16.8857 13.7022 16.874C13.7566 16.8623 13.8081 16.8397 13.8534 16.8074C13.8988 16.7752 13.9371 16.734 13.966 16.6864C13.9949 16.6389 14.0138 16.5859 14.0215 16.5308C14.1036 16.1608 14.2227 15.8 14.3769 15.4538C14.5631 15.8206 14.7076 16.2072 14.8077 16.6062C14.8831 16.7892 14.9585 16.8323 15.1415 16.8323H16.3692C16.0246 17.0908 15.7769 17.2954 15.5077 17.4677C15.2385 17.64 15.0985 17.8123 15.26 18.1354C15.3515 18.357 15.4306 18.5835 15.4969 18.8138C15.4969 18.9 15.5831 19.0185 15.4969 19.0831C15.4108 19.1477 15.3354 19.0831 15.2708 18.9754L15.1631 18.8892C14.2692 18.2969 14.2692 18.2969 13.4185 18.9969C13.3845 19.0381 13.3417 19.0711 13.2932 19.0935C13.2447 19.1159 13.1918 19.127 13.1385 19.1262C13.2339 18.7613 13.349 18.4018 13.4831 18.0492C13.5053 18.0163 13.5199 17.9788 13.5259 17.9395C13.532 17.9003 13.5292 17.8601 13.5179 17.822C13.5066 17.7839 13.4869 17.7488 13.4604 17.7192C13.4339 17.6896 13.4012 17.6662 13.3646 17.6508C13.0523 17.4246 12.74 17.1877 12.4277 16.9615L12.46 16.8754Z" fill="#FDFDFD"/>
<path d="M3.13384 5.62154C2.71384 5.94461 2.39077 6.20308 2.05692 6.42923C1.92769 6.51538 1.90615 6.59077 1.97077 6.72C2.12154 7.02154 2.12154 7.36615 2.28307 7.66769C2.28307 7.73231 2.33692 7.81846 2.28307 7.86154C2.22923 7.90461 2.15384 7.86154 2.1 7.79692C1.86307 7.61384 1.61538 7.44154 1.37846 7.25846C1.3454 7.22492 1.306 7.19829 1.26255 7.18011C1.2191 7.16194 1.17248 7.15258 1.12538 7.15258C1.07829 7.15258 1.03166 7.16194 0.988215 7.18011C0.944769 7.19829 0.905369 7.22492 0.872305 7.25846C0.581536 7.48461 0.279998 7.7 -0.107695 7.98C-2.43549e-06 7.53846 0.10769 7.14 0.24769 6.78461C0.266334 6.74931 0.277782 6.71066 0.28137 6.6709C0.284959 6.63114 0.280616 6.59106 0.268594 6.55299C0.256572 6.51492 0.237111 6.47962 0.211338 6.44913C0.185566 6.41864 0.153995 6.39358 0.118459 6.37538C-0.199555 6.15725 -0.495338 5.90836 -0.764618 5.63231C-0.409233 5.63231 -0.0430795 5.63231 0.312305 5.63231C0.362057 5.64149 0.413173 5.64027 0.462429 5.62871C0.511685 5.61716 0.558011 5.59552 0.598486 5.56516C0.638961 5.53481 0.672705 5.49639 0.697591 5.45234C0.722476 5.40829 0.737963 5.35956 0.743074 5.30923C0.839997 4.95384 0.969228 4.60923 1.10923 4.23231C1.27163 4.54132 1.39119 4.87102 1.46461 5.21231C1.55077 5.50308 1.68 5.68615 2.03538 5.64308C2.40088 5.61616 2.76757 5.60897 3.13384 5.62154Z" fill="#FDFDFD"/>
<path d="M5.06153 9.32615L5.53537 7.90461C5.67537 8.34615 5.8046 8.70154 5.9123 9.06769C5.91749 9.11134 5.93153 9.15346 5.95357 9.19149C5.97561 9.22953 6.00517 9.26266 6.04045 9.28887C6.07574 9.31508 6.116 9.33382 6.15877 9.34393C6.20155 9.35404 6.24593 9.35532 6.28922 9.34769C6.59076 9.34769 6.8923 9.34769 7.19384 9.34769C7.26922 9.34769 7.37691 9.29384 7.40922 9.40154C7.44153 9.50923 7.33384 9.54154 7.26922 9.58461L6.54768 10.1123C6.47604 10.1493 6.42147 10.2125 6.39538 10.2888C6.36928 10.365 6.37369 10.4484 6.40768 10.5215C6.56207 10.903 6.67402 11.3002 6.74153 11.7062C6.41845 11.4692 6.12768 11.2754 5.85845 11.0492C5.81821 11.0069 5.76977 10.9731 5.71608 10.9501C5.66239 10.927 5.60457 10.9152 5.54614 10.9152C5.48771 10.9152 5.4299 10.927 5.37621 10.9501C5.32252 10.9731 5.27408 11.0069 5.23384 11.0492L4.30768 11.7277C4.35377 11.3557 4.45541 10.9926 4.60922 10.6508C4.63951 10.6041 4.65969 10.5517 4.66849 10.4968C4.67729 10.4419 4.6745 10.3857 4.66029 10.332C4.64609 10.2782 4.6208 10.228 4.58604 10.1846C4.55127 10.1412 4.50781 10.1056 4.45845 10.08C4.19999 9.90769 3.96307 9.72461 3.70461 9.54154C3.70461 9.32615 3.91999 9.40154 4.03845 9.39077C4.38077 9.42203 4.72586 9.40023 5.06153 9.32615V9.32615Z" fill="#FDFDFD"/>
<path d="M8.75537 15.4538C8.81927 15.0623 8.92767 14.6793 9.07845 14.3123C9.0987 14.2728 9.11086 14.2296 9.11423 14.1854C9.11759 14.1411 9.11209 14.0966 9.09805 14.0545C9.08402 14.0124 9.06172 13.9735 9.03246 13.9401C9.00321 13.9067 8.96759 13.8795 8.92768 13.86C8.60652 13.6546 8.31331 13.4084 8.05537 13.1277H9.1323C9.34768 13.1277 9.48768 13.1277 9.53076 12.8369C9.61092 12.5232 9.70798 12.214 9.82153 11.9108C9.82153 11.8462 9.82153 11.7923 9.92922 11.7923C10.0369 11.7923 9.99384 11.8677 10.0154 11.9215C10.1231 12.2338 10.2308 12.5462 10.3277 12.8692C10.3342 12.9105 10.3489 12.9501 10.3709 12.9856C10.393 13.0211 10.422 13.0518 10.4561 13.0759C10.4902 13.1 10.5289 13.117 10.5697 13.1259C10.6106 13.1348 10.6528 13.1354 10.6938 13.1277C11.0708 13.1277 11.4477 13.1277 11.9323 13.1277C11.5338 13.4185 11.2431 13.6662 10.9308 13.86C10.8876 13.8804 10.8492 13.9095 10.8179 13.9455C10.7866 13.9815 10.7631 14.0236 10.749 14.0692C10.7348 14.1148 10.7302 14.1628 10.7356 14.2102C10.7409 14.2576 10.756 14.3034 10.78 14.3446L11.1569 15.4215C10.8168 15.2734 10.5038 15.0695 10.2308 14.8185C10.0154 14.6677 9.85384 14.5923 9.62768 14.8185C9.35007 15.0478 9.05877 15.2599 8.75537 15.4538V15.4538Z" fill="#FDFDFE"/>
<path d="M11.9538 5.62154C11.6401 5.89379 11.3091 6.14559 10.9631 6.37538C10.7046 6.52615 10.7477 6.68769 10.8338 6.87077C10.9738 7.21924 11.082 7.57969 11.1569 7.94769C10.8437 7.79555 10.5536 7.59975 10.2954 7.36615C10.256 7.3187 10.2066 7.28052 10.1507 7.25431C10.0949 7.22811 10.034 7.21452 9.97229 7.21452C9.91061 7.21452 9.84968 7.22811 9.79384 7.25431C9.73801 7.28052 9.68863 7.3187 9.64921 7.36615C9.39075 7.59231 9.08921 7.77538 8.7769 8.00154C8.83572 7.63095 8.94063 7.26917 9.08921 6.92461C9.15383 6.73077 9.17537 6.58 8.94921 6.44C8.6271 6.23165 8.33382 5.98181 8.0769 5.69692H9.15383C9.37998 5.69692 9.53075 5.69692 9.5846 5.39538C9.65771 5.09147 9.75126 4.79285 9.8646 4.50154C9.8646 4.43692 9.8646 4.38308 9.97229 4.37231C10.08 4.36154 10.0477 4.44769 10.0584 4.50154C10.0692 4.55538 10.1446 4.77077 10.1984 4.91077C10.4892 5.69692 10.4892 5.69692 11.3292 5.69692L11.9538 5.62154Z" fill="#FDFDFD"/>
<path d="M4.41537 19.1585C4.425 18.8131 4.50181 18.4729 4.64153 18.1569C4.74922 17.9308 4.75999 17.7477 4.50153 17.5969C4.24306 17.4462 3.89845 17.1554 3.51076 16.8754C3.99537 16.8754 4.39383 16.8754 4.78153 16.8754C4.82197 16.8831 4.86357 16.8824 4.90374 16.8734C4.94391 16.8644 4.98181 16.8472 5.01511 16.823C5.0484 16.7988 5.07639 16.768 5.09733 16.7326C5.11828 16.6971 5.13175 16.6578 5.13691 16.6169C5.2446 16.24 5.37383 15.8738 5.53537 15.4C5.68614 15.8523 5.81537 16.2077 5.9123 16.5738C5.91752 16.6203 5.93213 16.6652 5.95526 16.7058C5.97838 16.7464 6.00953 16.7819 6.0468 16.8101C6.08407 16.8384 6.12669 16.8587 6.17207 16.8699C6.21745 16.8811 6.26464 16.883 6.31076 16.8754C6.68935 16.854 7.06913 16.8793 7.44153 16.9508C7.12922 17.1877 6.81691 17.4354 6.49383 17.6615C6.3646 17.7477 6.32153 17.8231 6.38614 17.9846C6.52526 18.3679 6.62274 18.7651 6.67691 19.1692C6.38614 18.9646 6.0846 18.7708 5.81537 18.5446C5.78205 18.5077 5.74135 18.4782 5.6959 18.458C5.65045 18.4378 5.60127 18.4273 5.55153 18.4273C5.50179 18.4273 5.4526 18.4378 5.40715 18.458C5.3617 18.4782 5.321 18.5077 5.28768 18.5446C5.00768 18.7708 4.70614 18.9538 4.41537 19.1585Z" fill="#FDFDFD"/>
<path d="M18.8031 11.7815C18.9276 12.1024 19.0354 12.4295 19.1262 12.7615C19.1908 13.0415 19.2985 13.1708 19.6 13.1492C19.9015 13.1277 20.2892 13.1492 20.6769 13.1492C20.4065 13.4308 20.0985 13.6736 19.7615 13.8708C19.7199 13.8913 19.6827 13.92 19.6524 13.9551C19.6221 13.9903 19.5992 14.0313 19.5852 14.0756C19.5711 14.1198 19.5661 14.1665 19.5705 14.2127C19.5749 14.2589 19.5886 14.3038 19.6108 14.3446C19.74 14.6892 19.8369 15.0446 19.9662 15.4215C19.5871 15.2124 19.2268 14.971 18.8892 14.7C18.76 14.6031 18.6846 14.6138 18.5554 14.7C18.2191 14.9665 17.8586 15.2009 17.4785 15.4C17.5416 15.0747 17.6391 14.757 17.7692 14.4523C17.8769 14.1938 17.9308 13.9677 17.5969 13.7954C17.2898 13.6141 17.0135 13.3851 16.7785 13.1169C17.1193 13.0997 17.4607 13.0997 17.8015 13.1169C18.1462 13.1169 18.2538 12.9877 18.3292 12.6862C18.4046 12.3846 18.5338 12.0508 18.6415 11.7385L18.8031 11.7815Z" fill="#FDFDFE"/>
<path d="M16.8215 5.62154C17.22 5.62154 17.5646 5.62154 17.8985 5.62154C18.2323 5.62154 18.34 5.49231 18.4154 5.21231C18.5091 4.895 18.643 4.59099 18.8138 4.30769C18.9215 4.64154 19.0615 4.97538 19.1369 5.32C19.1389 5.37331 19.1525 5.42555 19.1768 5.47305C19.2011 5.52056 19.2355 5.56218 19.2775 5.595C19.3196 5.62783 19.3683 5.65107 19.4203 5.66309C19.4723 5.67512 19.5263 5.67564 19.5785 5.66461C19.9338 5.66461 20.3 5.66461 20.7092 5.66461C20.4138 5.9559 20.089 6.21575 19.74 6.44C19.707 6.45793 19.678 6.48232 19.6546 6.5117C19.6313 6.54108 19.614 6.57486 19.604 6.61103C19.594 6.64719 19.5913 6.68501 19.5961 6.72223C19.601 6.75945 19.6133 6.79532 19.6323 6.82769C19.7615 7.18308 19.8585 7.54923 19.9985 7.99077C19.6674 7.80927 19.3569 7.59264 19.0723 7.34461C19.036 7.30512 18.9919 7.2736 18.9428 7.25203C18.8936 7.23047 18.8406 7.21933 18.7869 7.21933C18.7333 7.21933 18.6802 7.23047 18.6311 7.25203C18.582 7.2736 18.5378 7.30512 18.5015 7.34461C18.2754 7.52769 18.0277 7.71077 17.7908 7.88308C17.7908 7.88308 17.6723 7.95846 17.6292 7.93692C17.5861 7.91538 17.6292 7.81846 17.6292 7.75384L17.9415 6.80615C17.9415 6.65538 17.9415 6.56923 17.8123 6.45077C17.4533 6.21063 17.1211 5.93263 16.8215 5.62154V5.62154Z" fill="#FDFDFD"/>
<path d="M26.3738 15.3892C26.4815 15.0446 26.5784 14.6785 26.7077 14.3123C26.8369 13.9462 26.7938 13.9677 26.5784 13.8385C26.2539 13.6288 25.954 13.3832 25.6846 13.1062C26.04 13.1062 26.4061 13.1062 26.7615 13.1062C26.8133 13.1153 26.8664 13.1139 26.9176 13.1019C26.9688 13.0898 27.017 13.0676 27.0593 13.0363C27.1017 13.0051 27.1372 12.9656 27.1637 12.9202C27.1903 12.8748 27.2073 12.8245 27.2138 12.7723C27.3215 12.4169 27.4292 12.0615 27.5584 11.6954C27.7326 12.0165 27.8595 12.3611 27.9354 12.7185C28.0323 13.0415 28.1723 13.1708 28.5061 13.1277C28.84 13.0846 29.1523 13.1277 29.5831 13.1277C29.2061 13.4077 28.9369 13.6554 28.6246 13.8385C28.3123 14.0215 28.4092 14.1185 28.4523 14.3231C28.5833 14.6737 28.6876 15.0337 28.7646 15.4C28.4106 15.2249 28.0811 15.004 27.7846 14.7431C27.7586 14.7167 27.7275 14.6958 27.6933 14.6815C27.6591 14.6672 27.6224 14.6598 27.5854 14.6598C27.5483 14.6598 27.5116 14.6672 27.4774 14.6815C27.4432 14.6958 27.4122 14.7167 27.3861 14.7431C27.0738 14.98 26.7508 15.2062 26.4384 15.4323L26.3738 15.3892Z" fill="#FDFDFE"/>
<path d="M24.3492 19.2015C24.0369 18.9754 23.7246 18.7708 23.4231 18.5338C23.3928 18.5012 23.3562 18.4752 23.3154 18.4574C23.2746 18.4396 23.2306 18.4304 23.1862 18.4304C23.1417 18.4304 23.0977 18.4396 23.0569 18.4574C23.0161 18.4752 22.9795 18.5012 22.9492 18.5338C22.6477 18.7708 22.3246 18.9754 21.98 19.2231C22.0502 18.8539 22.1585 18.493 22.3031 18.1462C22.3677 17.9308 22.3785 17.8015 22.1738 17.6615C21.8467 17.4512 21.5465 17.2017 21.28 16.9185H22.4108C22.4542 16.9278 22.4992 16.9278 22.5426 16.9183C22.586 16.9089 22.627 16.8903 22.6626 16.8638C22.6983 16.8373 22.7279 16.8035 22.7495 16.7646C22.7711 16.7258 22.7841 16.6828 22.7877 16.6385C22.8738 16.2831 23.0138 15.9385 23.1538 15.5615C23.3377 15.8995 23.4719 16.2622 23.5523 16.6385C23.5588 16.6878 23.5752 16.7354 23.6007 16.7782C23.6262 16.821 23.6601 16.8581 23.7004 16.8874C23.7408 16.9166 23.7866 16.9373 23.8352 16.9482C23.8838 16.9591 23.9341 16.96 23.9831 16.9508C24.3492 16.9508 24.7262 16.9508 25.2 16.9508C24.8015 17.2523 24.4892 17.5108 24.1231 17.7154C24.085 17.7322 24.0509 17.757 24.0232 17.7882C23.9955 17.8193 23.9748 17.8561 23.9626 17.8959C23.9503 17.9357 23.9468 17.9777 23.9522 18.019C23.9576 18.0604 23.9718 18.1 23.9938 18.1354L24.3708 19.2123L24.3492 19.2015Z" fill="#FDFDFD"/>
<path d="M30.8108 19.2015C30.8743 18.832 30.9791 18.4708 31.1231 18.1246C31.1683 18.0213 31.1723 17.9047 31.1342 17.7986C31.0962 17.6924 31.019 17.6049 30.9185 17.5538C30.6179 17.3634 30.3429 17.1354 30.1 16.8754C30.4231 16.8754 30.7569 16.8754 31.08 16.8754C31.1454 16.8911 31.2134 16.8927 31.2795 16.88C31.3456 16.8674 31.4082 16.8408 31.4632 16.8021C31.5182 16.7634 31.5643 16.7134 31.5985 16.6555C31.6327 16.5976 31.6542 16.533 31.6615 16.4662C31.7212 16.0904 31.8412 15.7267 32.0169 15.3892C32.1461 15.7877 32.2646 16.1323 32.3615 16.4662C32.4585 16.8 32.5446 16.8215 32.8138 16.8108C33.0831 16.8 33.5354 16.8108 33.9554 16.8108C33.6462 17.1028 33.3109 17.3659 32.9538 17.5969C32.9219 17.6115 32.8934 17.6328 32.8703 17.6592C32.8472 17.6857 32.83 17.7167 32.8198 17.7503C32.8097 17.7839 32.8067 17.8193 32.8113 17.8541C32.8158 17.889 32.8277 17.9224 32.8461 17.9523C32.9646 18.2646 33.0615 18.5877 33.1692 18.9C33.1692 18.9538 33.2338 19.0185 33.1692 19.0615C33.1046 19.1046 33.04 19.0615 32.9861 19.0615C32.7385 18.8785 32.48 18.6954 32.2431 18.5015C32.2138 18.4692 32.1781 18.4433 32.1382 18.4256C32.0983 18.408 32.0552 18.3988 32.0115 18.3988C31.9679 18.3988 31.9248 18.408 31.8849 18.4256C31.845 18.4433 31.8093 18.4692 31.78 18.5015C31.4892 18.76 31.2308 18.9538 30.8108 19.2015Z" fill="#FDFDFD"/>
<path d="M16.2508 24.4785C15.9708 24.6831 15.6908 24.9092 15.4 25.1031C15.3565 25.1216 15.3172 25.1488 15.2846 25.1831C15.2521 25.2174 15.2269 25.2581 15.2108 25.3025C15.1946 25.347 15.1878 25.3943 15.1907 25.4415C15.1936 25.4887 15.2062 25.5348 15.2277 25.5769C15.3461 25.9215 15.4431 26.2769 15.5723 26.6538C15.2131 26.4719 14.8769 26.2478 14.5708 25.9862C14.5435 25.9561 14.5103 25.9321 14.4732 25.9156C14.4361 25.8992 14.3959 25.8907 14.3554 25.8907C14.3148 25.8907 14.2747 25.8992 14.2376 25.9156C14.2005 25.9321 14.1672 25.9561 14.14 25.9862C13.8385 26.2338 13.5154 26.4492 13.0631 26.7508C13.2031 26.2877 13.2892 25.9 13.44 25.5446C13.5908 25.1892 13.44 25.2215 13.3 25.1138C12.9827 24.9028 12.687 24.6611 12.4169 24.3923C12.7938 24.3923 13.1708 24.3923 13.4938 24.3923C13.5689 24.4029 13.6453 24.3858 13.7088 24.3442C13.7722 24.3025 13.8183 24.2393 13.8385 24.1662C14.0108 23.7892 14.0431 23.3585 14.2585 22.9815C14.4373 23.375 14.5849 23.7819 14.7 24.1985C14.7754 24.3492 14.8292 24.3923 14.98 24.3923H16.1431L16.2508 24.4785Z" fill="#FDFDFE"/>
<path d="M25.0923 24.4677C24.7908 24.6938 24.4892 24.92 24.1769 25.1246C23.8646 25.3292 23.9615 25.3938 24.0477 25.6092C24.1338 25.8246 24.2846 26.3092 24.4246 26.74C24.0154 26.4492 23.6815 26.2123 23.3477 25.9754C23.3255 25.9519 23.2988 25.9332 23.2692 25.9204C23.2396 25.9077 23.2076 25.9011 23.1754 25.9011C23.1431 25.9011 23.1112 25.9077 23.0815 25.9204C23.0519 25.9332 23.0252 25.9519 23.0031 25.9754C22.68 26.2231 22.3461 26.4492 21.9261 26.7185C21.9971 26.3238 22.109 25.9376 22.26 25.5662C22.28 25.5274 22.292 25.4851 22.2953 25.4416C22.2985 25.3981 22.2929 25.3545 22.2788 25.3132C22.2647 25.272 22.2425 25.234 22.2133 25.2016C22.1842 25.1692 22.1487 25.143 22.1092 25.1246C21.7918 24.9182 21.4992 24.6761 21.2369 24.4031C21.6031 24.4031 21.9692 24.4031 22.3138 24.4031C22.3601 24.4124 22.4079 24.4117 22.4539 24.4012C22.5 24.3906 22.5432 24.3705 22.5809 24.342C22.6186 24.3135 22.6497 24.2773 22.6724 24.2358C22.695 24.1944 22.7086 24.1486 22.7123 24.1015C22.8092 23.7462 22.9384 23.4015 23.0784 23.0246C23.2456 23.3688 23.3755 23.7298 23.4661 24.1015C23.4708 24.1555 23.4871 24.2078 23.5139 24.2549C23.5407 24.3021 23.5773 24.3428 23.6212 24.3745C23.6652 24.4062 23.7154 24.428 23.7686 24.4386C23.8217 24.4491 23.8765 24.448 23.9292 24.4354C24.2846 24.4354 24.64 24.4354 25.0061 24.4354L25.0923 24.4677Z" fill="#FDFDFE"/>
<path d="M33.8908 24.4785C33.6 24.6938 33.3092 24.9308 32.9969 25.1246C32.9551 25.1402 32.9173 25.1649 32.8861 25.1969C32.855 25.2289 32.8314 25.2674 32.817 25.3097C32.8026 25.3519 32.7977 25.3968 32.8027 25.4412C32.8078 25.4855 32.8226 25.5282 32.8462 25.5662C32.9862 25.9108 33.0831 26.2877 33.2123 26.6969C32.8712 26.5113 32.55 26.2912 32.2538 26.04C32.0708 25.9108 31.9523 25.8462 31.7369 26.04C31.4415 26.2804 31.1322 26.5033 30.8108 26.7077C30.8578 26.3371 30.9557 25.9747 31.1015 25.6308C31.1769 25.3615 31.1662 25.1569 30.8754 25.0062C30.5881 24.8412 30.3328 24.626 30.1215 24.3708C30.4516 24.353 30.7823 24.353 31.1123 24.3708C31.4354 24.3708 31.5538 24.2523 31.6292 23.9723C31.7218 23.6238 31.8556 23.2876 32.0277 22.9708C32.1354 23.3262 32.2538 23.6815 32.3615 24.0477C32.3679 24.101 32.3852 24.1524 32.4125 24.1986C32.4397 24.2448 32.4763 24.2849 32.5198 24.3163C32.5633 24.3477 32.6129 24.3697 32.6653 24.3809C32.7178 24.3921 32.7721 24.3923 32.8246 24.3815C33.1692 24.3815 33.5246 24.3815 33.9015 24.3815L33.8908 24.4785Z" fill="#FDFDFE"/>
<path d="M4.30768 26.6108C4.40461 26.3092 4.47999 25.9969 4.59845 25.6954C4.71692 25.3938 4.73845 25.2431 4.43692 25.0708C4.13172 24.8868 3.85583 24.6581 3.61845 24.3923C3.94482 24.3724 4.27209 24.3724 4.59845 24.3923C4.96461 24.3923 5.08307 24.2631 5.15845 23.9615C5.23384 23.66 5.36307 23.3154 5.50307 22.8846C5.64307 23.3369 5.7723 23.7031 5.87999 24.0585C5.98768 24.4138 6.04153 24.3923 6.31076 24.3815C6.67149 24.3563 7.03398 24.3817 7.38768 24.4569C7.10768 24.6723 6.83845 24.8985 6.53691 25.0815C6.23538 25.2646 6.27845 25.3077 6.36461 25.5446C6.45076 25.7815 6.59076 26.2662 6.73076 26.7292C6.32153 26.4385 5.98768 26.2123 5.65384 25.9646C5.63265 25.9414 5.60686 25.9229 5.57812 25.9103C5.54938 25.8976 5.51832 25.891 5.48692 25.891C5.45551 25.891 5.42445 25.8976 5.39571 25.9103C5.36697 25.9229 5.34118 25.9414 5.31999 25.9646C5.00768 26.2015 4.68461 26.4169 4.36153 26.6431L4.30768 26.6108Z" fill="#FDFDFE"/>
<path d="M29.2492 20.8708C29.0837 21.0246 28.9033 21.1617 28.7108 21.28C28.4092 21.4308 28.3984 21.6462 28.4846 21.9262C28.6178 22.2409 28.7153 22.5697 28.7754 22.9062C28.4314 22.7296 28.1096 22.5127 27.8169 22.26C27.7535 22.2025 27.671 22.1706 27.5854 22.1706C27.4998 22.1706 27.4172 22.2025 27.3538 22.26L26.3523 23.0031C26.446 22.6153 26.5648 22.234 26.7077 21.8615C26.7356 21.8178 26.754 21.7686 26.7615 21.7173C26.769 21.666 26.7655 21.6136 26.7513 21.5637C26.737 21.5138 26.7123 21.4675 26.6788 21.4279C26.6453 21.3882 26.6037 21.3562 26.5569 21.3338C26.2165 21.1143 25.8958 20.8657 25.5984 20.5908C26.04 20.5908 26.4061 20.5908 26.7723 20.5908C26.8242 20.6016 26.8779 20.6014 26.9297 20.59C26.9816 20.5787 27.0305 20.5566 27.0732 20.5251C27.1159 20.4935 27.1514 20.4534 27.1775 20.4072C27.2036 20.361 27.2197 20.3098 27.2246 20.2569C27.3103 19.8837 27.4405 19.5222 27.6123 19.18L28 20.5692C28.2046 20.7523 28.4523 20.6338 28.6892 20.6662C28.9261 20.6985 29.0015 20.6662 29.1523 20.6662C29.3031 20.6662 29.4108 20.7523 29.2492 20.8708Z" fill="#FDFDFD"/>
<path d="M33.6646 9.62769L32.9969 10.1123C32.9538 10.1312 32.9154 10.1593 32.8842 10.1946C32.8531 10.2299 32.8301 10.2715 32.8167 10.3167C32.8034 10.3618 32.8001 10.4093 32.807 10.4559C32.814 10.5024 32.831 10.5469 32.8569 10.5862C33.0054 10.9697 33.1312 11.3617 33.2338 11.76L32.3077 11.0923C32.2634 11.0454 32.21 11.008 32.1507 10.9824C32.0915 10.9569 32.0276 10.9437 31.9631 10.9437C31.8985 10.9437 31.8347 10.9569 31.7754 10.9824C31.7162 11.008 31.6627 11.0454 31.6185 11.0923C31.3708 11.3077 31.0908 11.4908 30.8 11.7169C30.7354 11.4585 30.8754 11.2646 30.9292 11.06C30.9732 10.8988 31.0271 10.7406 31.0908 10.5862C31.1121 10.5403 31.1241 10.4907 31.1259 10.4401C31.1277 10.3896 31.1193 10.3392 31.1012 10.292C31.0831 10.2447 31.0557 10.2016 31.0206 10.1652C30.9855 10.1288 30.9434 10.0998 30.8969 10.08C30.6771 9.95604 30.4744 9.80399 30.2938 9.62769C30.1323 9.46615 30.2938 9.42307 30.3908 9.41231C30.4877 9.40154 30.8861 9.41231 31.1446 9.41231C31.4031 9.41231 31.4138 9.41231 31.5108 9.32615L31.9415 7.95846C32.1892 8.46461 32.2323 8.93846 32.4585 9.35846C32.7839 9.42741 33.1176 9.44917 33.4492 9.42307C33.6108 9.41231 33.8369 9.36923 33.6646 9.62769Z" fill="#FDFDFE"/>
<path d="M0.646139 20.58L1.07691 19.2231C1.26337 19.6661 1.42516 20.1191 1.56152 20.58C1.87383 20.7415 2.20768 20.58 2.53075 20.6554C2.64922 20.6554 2.85383 20.6554 2.77845 20.86C2.54152 21.0431 2.3046 21.2262 2.05691 21.3877C2.0221 21.4066 1.99154 21.4325 1.96709 21.4637C1.94265 21.4949 1.92483 21.5307 1.91475 21.5691C1.90466 21.6074 1.90252 21.6474 1.90845 21.6866C1.91437 21.7257 1.92825 21.7633 1.94922 21.7969C2.08922 22.1523 2.18614 22.5292 2.32614 22.9923C1.95998 22.7231 1.65845 22.5292 1.38922 22.3031C1.34983 22.2593 1.30167 22.2242 1.24787 22.2003C1.19406 22.1763 1.13581 22.1639 1.07691 22.1639C1.018 22.1639 0.959756 22.1763 0.905951 22.2003C0.852146 22.2242 0.803987 22.2593 0.7646 22.3031C0.4846 22.5185 0.193831 22.7231 -0.118476 22.96C-0.0503737 22.5577 0.0615754 22.1641 0.21537 21.7862C0.250235 21.6998 0.251923 21.6037 0.220109 21.5162C0.188295 21.4287 0.125229 21.3561 0.043062 21.3123L-0.549246 20.8708C-0.689246 20.72 -0.549246 20.6554 -0.441553 20.6446C-0.333861 20.6338 0.0107543 20.6446 0.236908 20.6446C0.463062 20.6446 0.538446 20.6985 0.646139 20.58Z" fill="#FDFDFE"/>
<path d="M24.9308 9.55231L24.1877 10.1015C24.1436 10.1239 24.1047 10.1552 24.0734 10.1935C24.0421 10.2317 24.0191 10.2761 24.006 10.3237C23.9928 10.3713 23.9897 10.4212 23.9969 10.4701C24.0041 10.519 24.0214 10.5659 24.0477 10.6077C24.193 10.9767 24.3153 11.3543 24.4138 11.7385C24.08 11.4908 23.7892 11.3077 23.5415 11.0923C23.495 11.0396 23.4379 10.9974 23.3738 10.9685C23.3098 10.9395 23.2403 10.9246 23.17 10.9246C23.0997 10.9246 23.0302 10.9395 22.9662 10.9685C22.9021 10.9974 22.8449 11.0396 22.7985 11.0923C22.5508 11.3077 22.2708 11.4908 21.9585 11.7277C22.0299 11.325 22.1455 10.9313 22.3031 10.5538C22.3419 10.4748 22.3491 10.384 22.323 10.2998C22.297 10.2157 22.2398 10.1448 22.1631 10.1015L21.5385 9.62769C21.3985 9.47692 21.5385 9.42308 21.6354 9.41231C21.8865 9.39931 22.1381 9.39931 22.3892 9.41231C22.6261 9.41231 22.7985 9.41231 22.8308 9.07846C22.8618 8.91364 22.9162 8.75409 22.9923 8.60461C23.0126 8.39723 23.1039 8.20323 23.2508 8.05538L23.5092 8.88461C23.66 9.40154 23.66 9.40154 24.1877 9.40154H24.7261C24.7692 9.40154 24.9415 9.39077 24.9308 9.55231Z" fill="#FDFDFD"/>
<path d="M22.96 8.61538C22.9359 8.84062 22.8816 9.06159 22.7984 9.2723C22.7984 9.43384 22.6261 9.48769 22.4646 9.48769H21.6461C21.5169 9.48769 21.4631 9.48769 21.5169 9.64923C21.3877 9.64923 21.2369 9.56307 21.2692 9.41231C21.3015 9.26154 21.4523 9.35846 21.56 9.41231C22.1631 9.34769 22.8415 9.49846 22.96 8.61538Z" fill="#BABACB"/>
<path d="M24.9308 9.5523C24.6615 9.35846 24.36 9.47692 24.0692 9.46615C23.5954 9.46615 23.52 9.38 23.4769 8.87384C23.5738 9.31538 23.8861 9.38 24.2738 9.32615C24.4853 9.31023 24.6977 9.31023 24.9092 9.32615C24.9738 9.32615 25.0923 9.32615 25.1031 9.4123C25.1138 9.49846 25.0277 9.5523 24.9308 9.5523Z" fill="#B9B9CB"/>
<path d="M33.6646 9.62769C33.6646 9.49846 33.6646 9.45538 33.5354 9.45538H32.7815C32.6738 9.45538 32.5231 9.45538 32.4908 9.32615C32.8569 9.32615 33.2338 9.32615 33.5677 9.32615C33.6861 9.32615 33.8692 9.24 33.9015 9.39077C33.9338 9.54154 33.7831 9.57384 33.6646 9.62769Z" fill="#B4B4C6"/>
<path d="M31.5431 9.30461C31.5431 9.48769 31.36 9.45538 31.2308 9.45538H30.4554C30.3369 9.45538 30.2723 9.45538 30.3262 9.61692C30.1754 9.61692 30.0785 9.52 29.9923 9.30461H31.5431Z" fill="#B6B6C8"/>
<path d="M13.8708 9.32615C13.8708 9.50923 13.6985 9.45538 13.5908 9.46615H12.9231C12.8154 9.46615 12.6969 9.46615 12.6969 9.60615C12.6 9.60615 12.4277 9.54154 12.4708 9.38C12.5138 9.21846 12.6431 9.38 12.7292 9.38L13.8708 9.32615Z" fill="#B5B4C7"/>
<path d="M0.646154 20.58C0.646154 20.7631 0.484615 20.72 0.376923 20.7308H-0.376923C-0.506154 20.7308 -0.56 20.7308 -0.506154 20.8923C-0.583636 20.87 -0.654984 20.8303 -0.714723 20.7762C-0.774461 20.722 -0.821001 20.6549 -0.850769 20.58H0.646154Z" fill="#CACAD7"/>
<path d="M29.2492 20.8708C29.3138 20.7092 29.2492 20.7308 29.0985 20.7308H28.3446C28.2154 20.7308 28.0754 20.7308 28.0323 20.5692H29.5077C29.5185 20.7846 29.3892 20.8385 29.2492 20.8708Z" fill="#CCCCD9"/>
<path d="M2.82153 20.8708C2.82153 20.6877 2.66 20.7308 2.5523 20.7308H1.86307C1.75538 20.7308 1.61538 20.7308 1.59384 20.5908H3.06923C3.05846 20.7846 2.91846 20.8169 2.82153 20.8708Z" fill="#CACAD7"/>
<path d="M5.06153 9.32615C4.97538 9.50923 4.7923 9.43384 4.6523 9.45538C4.5123 9.47692 4.03846 9.35846 3.74769 9.54154C3.65076 9.54154 3.57538 9.48769 3.57538 9.39077C3.57538 9.29384 3.70461 9.32615 3.77999 9.32615H5.06153Z" fill="#B8B8C9"/>
<path d="M8.79845 22.7446C8.87384 22.8738 8.95999 22.7446 9.03538 22.7446C8.98472 22.805 8.93079 22.8625 8.87384 22.9169C8.81999 22.9169 8.73384 22.9923 8.70153 22.9169C8.69258 22.8995 8.68808 22.8801 8.68845 22.8605C8.68882 22.841 8.69404 22.8218 8.70364 22.8047C8.71325 22.7876 8.72694 22.7732 8.74348 22.7627C8.76003 22.7522 8.77891 22.746 8.79845 22.7446V22.7446Z" fill="#9B9AB4"/>
</g>
</svg>
